# xmcd
#
# Track frame offsets:
#	150
#	18575
#	38280
#	54957
#	71730
#	92490
#	106482
#	122405
#	134805
#	153985
#	172410
#	192115
#	208795
#	225565
#	246327
#	260317
#	276240
#	288642
#	307820
#
# Disc length: 4355 seconds
#
# Revision: 1
# Processed by: cddbd v1.5.1PL2 Copyright (c) Steve Scherf et al.
# Submitted via: audiograbber 1.83.01
#
DISCID=10110113
DTITLE=Nelson, Willie - THM-GWN01
DYEAR=1900
DGENRE=Country
TTITLE0=Stardust (Vocals)
TTITLE1=Georgia On My Mind (Vocals)
TTITLE2=Blue Skies (Vocals)
TTITLE3=All Of Me (Vocals)
TTITLE4=September Song (Vocals)
TTITLE5=On The Sunny Side Of The Street (Vocals)
TTITLE6=Moonlight In Vermont (Vocals)
TTITLE7=Don't Get Around Much Anymore (Vocals)
TTITLE8=Someone To Watch Over Me (Vocals)
TTITLE9=Stardust
TTITLE10=Georgia On My Mind
TTITLE11=Blue Skies
TTITLE12=All Of Me
TTITLE13=September Song
TTITLE14=On The Sunny Side Of The Street
TTITLE15=Moonlight In Vermont
TTITLE16=Don't Get Around Much Anymore
TTITLE17=Someone To Watch Over Me
TTITLE18=Unchained Melody
EXTD=
EXTT0=
EXTT1=
EXTT2=
EXTT3=
EXTT4=
EXTT5=
EXTT6=
EXTT7=
EXTT8=
EXTT9=
EXTT10=
EXTT11=
EXTT12=
EXTT13=
EXTT14=
EXTT15=
EXTT16=
EXTT17=
EXTT18=
PLAYORDER=
